<?xml version="1.0" encoding="UTF-8" standalone="no"?>
<svg xmlns:dc="http://purl.org/dc/elements/1.1/" xmlns:cc="http://creativecommons.org/ns#" xmlns:rdf="http://www.w3.org/1999/02/22-rdf-syntax-ns#" xmlns:svg="http://www.w3.org/2000/svg" xmlns="http://www.w3.org/2000/svg" xmlns:sodipodi="http://sodipodi.sourceforge.net/DTD/sodipodi-0.dtd" xmlns:inkscape="http://www.inkscape.org/namespaces/inkscape" version="1.1" id="svg44" width="189.86496" height="185.74362" viewBox="0 0 189.86496 185.74362" sodipodi:docname="efne.svg" inkscape:version="1.0.2 (e86c870879, 2021-01-15)">
  <metadata id="metadata50">
    <rdf:RDF>
      <cc:Work rdf:about="">
        <dc:format>image/svg+xml</dc:format>
        <dc:type rdf:resource="http://purl.org/dc/dcmitype/StillImage"/>
        <dc:title/>
      </cc:Work>
    </rdf:RDF>
  </metadata>
  <defs id="defs48"/>
  <sodipodi:namedview pagecolor="#ffffff" bordercolor="#666666" borderopacity="1" objecttolerance="10" gridtolerance="10" guidetolerance="10" inkscape:pageopacity="0" inkscape:pageshadow="2" inkscape:window-width="1848" inkscape:window-height="1016" id="namedview46" showgrid="false" inkscape:pagecheckerboard="true" inkscape:zoom="1.3935811" inkscape:cx="67.479099" inkscape:cy="153.67808" inkscape:window-x="1992" inkscape:window-y="27" inkscape:window-maximized="1" inkscape:current-layer="layer3" fit-margin-top="0" fit-margin-left="0" fit-margin-right="0" fit-margin-bottom="0" inkscape:document-rotation="0"/>
  <g inkscape:groupmode="layer" id="layer3" inkscape:label="noir" style="display:inline" transform="translate(-64.510947,-2.0844952)">
    <path style="display:inline;fill:#ffffff;stroke:none;stroke-width:0.317759;fill-opacity:1" d="m 103.21563,15.622573 c -1.95095,1.805797 -4.432198,4.822244 -6.883014,5.855589 -1.142044,0.481616 -2.408341,-0.35563 -3.577012,-0.350278 -1.737949,0.008 -3.389048,1.643591 -4.120616,3.095543 5.328591,2.503135 6.460492,5.369736 9.192144,10.193604 l 3.251488,-3.504306 0.2,-3.817696 6.69157,-6.057104 c 1.15916,4.259589 3.37161,9.982279 5.82053,13.655289 1.22604,1.838353 3.70728,1.158567 4.22141,-0.914494 1.38484,-5.581157 -4.37863,-11.959009 -3.31646,-17.519047 0.73917,-3.868345 12.21794,-8.3748748 7.76672,-12.9878023 -4.71778,-4.8894549 -9.73353,6.8963583 -13.85826,6.9840233 -5.6126,0.119265 -11.13042,-6.919705 -16.799437,-6.3587223 -2.150328,0.2127785 -3.175093,2.6672681 -1.512583,4.1485262 3.333578,2.9697481 8.822873,5.8520541 12.92352,7.5768751 m 134.07852,21.342859 c -1.21907,0.390543 -4.25406,1.587973 -4.11428,3.199199 0.22854,2.63441 3.47178,6.196119 4.66961,8.587156 3.25022,6.486955 6.14891,13.069157 8.13632,20.068662 8.57278,30.190585 0.0824,62.188311 -20.79041,85.371431 -25.33862,28.14327 -69.94811,36.82057 -103.91244,20.30502 C 98.843022,163.58497 82.115857,143.66412 74.079387,120.10702 66.82742,98.849847 68.665531,75.459033 77.955936,55.12279 79.90372,50.858996 82.07053,46.629606 84.62341,42.699335 c 1.684381,-2.592998 4.033766,-5.154142 5.27946,-7.963754 -0.961371,-0.735532 -2.466347,-2.671297 -3.775118,-2.536614 -1.016208,0.10458 -1.789615,1.480493 -2.331318,2.218064 -1.808634,2.461756 -3.42233,5.023536 -4.98753,7.645203 -6.218961,10.416908 -10.453687,21.848398 -12.741263,33.766318 -6.055086,31.546968 5.987573,64.482508 28.589786,86.640858 30.966113,30.35814 81.444303,33.17413 117.279083,9.97794 15.37751,-9.95405 27.54664,-24.95745 34.73141,-41.82818 9.182,-21.56138 10.2074,-45.592802 2.82484,-67.851177 -3.06732,-9.247192 -8.14107,-17.079065 -12.19861,-25.802561" id="path309" sodipodi:nodetypes="ccsccccccccccscccsccscccccsccccsccc"/>
    <path d="m 159.44342,94.956311 h 35.41377 C 192.17587,115.74925 178.2633,134.31619 159.44342,140.08357 V 94.956311 H 124.02965 V 66.119386 l 35.41377,-15.733831 m 0,-11.07946 -45.53198,20.236448 v 30.354659 c 0,28.078058 19.42699,54.284258 45.53198,60.709318 26.10501,-6.42506 45.532,-32.63126 45.532,-60.709318 V 59.542543 Z" id="path832" style="stroke-width:5.05911;fill:#ffffff;fill-opacity:1"/>
  </g>
</svg>