<?xml version="1.0" encoding="UTF-8" standalone="no"?>
<svg xmlns:dc="http://purl.org/dc/elements/1.1/" xmlns:cc="http://creativecommons.org/ns#" xmlns:rdf="http://www.w3.org/1999/02/22-rdf-syntax-ns#" xmlns:svg="http://www.w3.org/2000/svg" xmlns="http://www.w3.org/2000/svg" xmlns:sodipodi="http://sodipodi.sourceforge.net/DTD/sodipodi-0.dtd" xmlns:inkscape="http://www.inkscape.org/namespaces/inkscape" inkscape:version="1.0.1 (3bc2e813f5, 2020-09-07)" sodipodi:docname="meteo.svg" version="1.1" viewBox="0 0 159.03798 159.03798" height="159.03798" width="159.03798" data-name="Calque 1" id="ccf56f4b-2a39-45ee-af6e-4481bfcbcb86">
  <metadata id="metadata872">
    <rdf:RDF>
      <cc:Work rdf:about="">
        <dc:format>image/svg+xml</dc:format>
        <dc:type rdf:resource="http://purl.org/dc/dcmitype/StillImage"/>
        <dc:title>mf-logo</dc:title>
      </cc:Work>
    </rdf:RDF>
  </metadata>
  <defs id="defs870"/>
  <sodipodi:namedview inkscape:current-layer="ccf56f4b-2a39-45ee-af6e-4481bfcbcb86" inkscape:window-maximized="1" inkscape:window-y="27" inkscape:window-x="1992" inkscape:cy="201.76503" inkscape:cx="-88.091237" inkscape:zoom="1.4" showgrid="false" id="namedview868" inkscape:window-height="1016" inkscape:window-width="1848" inkscape:pageshadow="2" inkscape:pageopacity="0" guidetolerance="10" gridtolerance="10" objecttolerance="10" borderopacity="1" inkscape:document-rotation="0" bordercolor="#666666" pagecolor="#ffffff" fit-margin-top="0" fit-margin-left="0" fit-margin-right="0" fit-margin-bottom="0"/>
  <title id="title833">mf-logo</title>
  <g id="g878" transform="translate(-220.48102,-111.56962)">
    <rect x="220.48102" y="111.56962" width="159.03798" height="159.03798" rx="12.759493" ry="12.759493" style="fill:#ffffff;stroke-width:7.59494" id="rect837"/>
    <polygon points="43.11,20.79 44.05,17.65 46.29,19.98 " style="fill:#005891" id="polygon839" transform="scale(7.5949367)"/>
    <path d="m 357.94937,191.08861 a 57.64557,57.64557 0 0 0 -10.17722,-32.81013 l -5.16456,1.97468 a 56.050633,56.050633 0 0 1 10.25317,30.83545 53.164557,53.164557 0 0 1 -45.56962,52.32911 210.1519,210.1519 0 0 1 -1.74684,-104.81013 55.443038,55.443038 0 0 1 19.74684,6 l 1.29114,-4.86075 a 57.56962,57.56962 0 0 0 -19.74684,-6.1519 150.68354,150.68354 0 0 1 8.12659,-22.02532 h -7.59494 a 164.05063,164.05063 0 0 0 -7.59494,21.64557 v 0 a 57.949367,57.949367 0 0 0 0,115.82278 h 1.97469 c 1.97468,7.0633 4.25316,14.27849 7.06329,21.64557 h 7.06329 c -2.88608,-7.59493 -5.39241,-15.18987 -7.59494,-22.25316 a 57.949367,57.949367 0 0 0 49.67089,-57.34177 z" style="fill:#005891;stroke-width:7.59494" id="path841" inkscape:connector-curvature="0"/>
    <path d="m 298.63291,130.40506 h -7.06329" style="fill:#ffffff;stroke-width:7.59494" id="path843" inkscape:connector-curvature="0"/>
  </g>
  <g id="g891" transform="translate(-220.48102,-111.56962)"/>
</svg>